<?xml version="1.0" encoding="UTF-8" standalone="no"?>
<svg
   xmlns:dc="http://purl.org/dc/elements/1.1/"
   xmlns:cc="http://creativecommons.org/ns#"
   xmlns:rdf="http://www.w3.org/1999/02/22-rdf-syntax-ns#"
   xmlns:svg="http://www.w3.org/2000/svg"
   xmlns="http://www.w3.org/2000/svg"
   xmlns:sodipodi="http://sodipodi.sourceforge.net/DTD/sodipodi-0.dtd"
   xmlns:inkscape="http://www.inkscape.org/namespaces/inkscape"
   version="1.1"
   id="Layer_1"
   x="0px"
   y="0px"
   width="500"
   height="500"
   viewBox="0 0 500 500"
   enable-background="new 0 0 612 792"
   xml:space="preserve">
<path
   style="fill:#de0029"
   d="m 287.12024,87.948046 c -13.00802,7.727439 -23.30722,26.390644 -18.3137,45.103794 17.57723,-25.59169 71.10754,-2.50923 88.88438,-61.24528 -11.8845,9.38777 -27.33938,12.084276 -35.16682,11.197925 C 351.71112,71.119953 368.40188,28.887408 342.29839,9.3522056e-8 349.97583,34.043204 306.00805,36.989376 271.4781,43.381053 206.59996,55.415388 196.0388,114.58838 225.45052,144.73663 222.06739,108.93323 251.0297,87.573537 287.12024,87.948046"
   id="path2751-2" /><path
   style="fill:#3C3B6E"
   d="m 169.81041,176.64511 c 0,0 5.15568,11.83459 5.19313,23.50691 h 150.00487 c 0.0255,-11.80963 5.19333,-23.50691 5.19333,-23.50691 l -71.26989,-0.0118 c 9.63743,-15.70457 32.86975,-41.30873 81.9434,-41.27128 53.41796,0.0375 113.14023,42.61953 113.42748,118.23361 C 454.70214,366.51122 334.83311,447.24365 249.61912,500 165.70316,447.24365 45.309931,366.51122 45.696931,253.59568 45.971577,177.9816 105.70639,135.39952 159.12435,135.36207 c 49.086,-0.0374 72.30577,25.56671 81.93086,41.27128 l -71.2448,0.0118"
   id="path2753-3" /><path
   style="fill:#ffffff"
   d="m 267.84536,293.10604 c 2.18451,-29.82369 2.89627,-56.96337 9.54999,-76.66273 H 222.5668 c 6.64136,19.69936 7.39038,46.83904 9.56254,76.66273 2.68391,36.86451 9.43763,142.42714 9.43763,142.42714 h 16.85311 c -0.0196,0 6.72882,-105.56263 9.42528,-142.42714"
   id="path2755-2" /><path
   style="fill:#ffffff"
   d="m 169.37355,177.04458 c 0,0 5.15568,11.82212 5.19313,23.50691 h 150.00487 c 0.0255,-11.80963 5.19313,-23.50691 5.19313,-23.50691 H 169.37355"
   id="path2757-2" /></svg>